HIERARCHY
ROOT Hips
{
    OFFSET 0.000000 0.000000 0.000000
    CHANNELS 6 Xposition Yposition Zposition Zrotation Xrotation Yrotation
    JOINT Spine
    {
        OFFSET -0.000000 7.472806 0.000000
        CHANNELS 3 Zrotation Xrotation Yrotation
        JOINT Spine1
        {
            OFFSET -0.000000 20.861324 0.000000
            CHANNELS 3 Zrotation Xrotation Yrotation
            JOINT Neck
            {
                OFFSET -0.000000 20.775652 1.888696
                CHANNELS 3 Zrotation Xrotation Yrotation
                JOINT Head
                {
                    OFFSET -0.000000 12.758449 -1.822636
                    CHANNELS 3 Zrotation Xrotation Yrotation
                    End Site
                    {
                        OFFSET -0.000000 22.782944 0.000000
                    }
                }
            }
            JOINT LeftShoulder
            {
                OFFSET 3.666378 18.154961 -0.070414
                CHANNELS 3 Zrotation Xrotation Yrotation
                JOINT LeftArm
                {
                    OFFSET 12.961472 0.000000 0.000000
                    CHANNELS 3 Zrotation Xrotation Yrotation
                    JOINT LeftForeArm
                    {
                        OFFSET 24.623642 0.000000 0.000000
                        CHANNELS 3 Zrotation Xrotation Yrotation
                        JOINT LeftHand
                        {
                            OFFSET 23.136553 0.000000 0.000000
                            CHANNELS 3 Zrotation Xrotation Yrotation
                            End Site
                            {
                                OFFSET 13.669766 0.000000 0.000000
                            }
                        }
                    }
                }
            }
            JOINT RightShoulder
            {
                OFFSET -3.623027 18.154961 -0.070414
                CHANNELS 3 Zrotation Xrotation Yrotation
                JOINT RightArm
                {
                    OFFSET -12.961472 0.000000 0.000000
                    CHANNELS 3 Zrotation Xrotation Yrotation
                    JOINT RightForeArm
                    {
                        OFFSET -24.623642 0.000000 0.000000
                        CHANNELS 3 Zrotation Xrotation Yrotation
                        JOINT RightHand
                        {
                            OFFSET -23.136553 0.000000 0.000000
                            CHANNELS 3 Zrotation Xrotation Yrotation
                            End Site
                            {
                                OFFSET -13.669766 0.000000 0.000000
                            }
                        }
                    }
                }
            }
        }
    }
    JOINT LeftUpLeg
    {
        OFFSET 9.113177 0.000000 0.000000
        CHANNELS 3 Zrotation Xrotation Yrotation
        JOINT LeftLeg
        {
            OFFSET -0.000000 -45.736031 0.000000
            CHANNELS 3 Zrotation Xrotation Yrotation
            JOINT LeftFoot
            {
                OFFSET -0.000000 -34.703285 0.000000
                CHANNELS 3 Zrotation Xrotation Yrotation
                JOINT LeftToeBase
                {
                    OFFSET -0.000000 -5.923565 13.669766
                    CHANNELS 3 Zrotation Xrotation Yrotation
                    End Site
                    {
                        OFFSET -0.000000 0.000000 3.645271
                    }
                }
            }
        }
    }
    JOINT RightUpLeg
    {
        OFFSET -9.113177 0.000000 0.000000
        CHANNELS 3 Zrotation Xrotation Yrotation
        JOINT RightLeg
        {
            OFFSET -0.000000 -45.736031 0.000000
            CHANNELS 3 Zrotation Xrotation Yrotation
            JOINT RightFoot
            {
                OFFSET -0.000000 -34.703285 0.000000
                CHANNELS 3 Zrotation Xrotation Yrotation
                JOINT RightToeBase
                {
                    OFFSET -0.000000 -5.923565 13.669766
                    CHANNELS 3 Zrotation Xrotation Yrotation
                    End Site
                    {
                        OFFSET -0.000000 0.000000 3.645271
                    }
                }
            }
        }
    }
}
MOTION
Frames:    10
Frame Time:    0.008333
0.171571    87.083832    11.341199    0.032824    0.092868    1.320789    -1.505584    -0.751407    -0.633579    1.516956    -2.731498    -0.587611    -0.958061    15.796178    -3.167943    -0.061278    0.028820    -3.301698    15.110766    3.880671    -4.342503    -25.617516    5.501490    2.606715    2.285295    -5.715030    -5.962252    10.293665    -5.213131    4.274233    -13.809077    0.352773    0.447374    11.790433    -1.986127    0.995953    -2.942157    0.092779    1.197831    6.210640    0.095158    -0.531236    -1.046391    6.715539    -2.246705    -6.059721    -5.264958    -1.026918    6.688704    -2.430924    3.314348    0.000000    0.000000    0.000000    -3.737964    7.322418    2.481607    6.328840    -4.191657    2.064998    -3.759012    -4.187499    -8.004496    0.000000    0.000000    0.000000    
0.170750    87.084801    11.337640    0.034446    0.092199    1.327609    -1.508275    -0.739898    -0.633052    1.520499    -2.734805    -0.587019    -0.951849    15.789965    -3.166669    -0.070277    0.018072    -3.301654    15.141122    3.833617    -4.395781    -25.664991    5.509083    2.694793    2.291799    -5.724322    -5.986880    10.321546    -5.220839    4.271073    -13.814673    0.351182    0.439445    11.805409    -2.078317    0.934070    -2.980186    0.141015    1.327697    6.206631    0.142439    -0.614196    -1.049686    6.710288    -2.257200    -6.055203    -5.259425    -1.009415    6.686447    -2.430988    3.309043    0.000000    0.000000    0.000000    -3.738871    7.320725    2.479070    6.331022    -4.189784    2.046547    -3.761884    -4.184246    -7.993574    0.000000    0.000000    0.000000    
0.168531    87.085304    11.334097    0.032507    0.094389    1.333496    -1.508875    -0.736273    -0.634420    1.524899    -2.732227    -0.588341    -0.948467    15.790618    -3.162927    -0.064349    0.005311    -3.296919    15.114476    3.866660    -4.350781    -25.606098    5.490794    2.620609    2.270835    -5.737971    -5.971304    10.345867    -5.235054    4.270316    -13.810568    0.351712    0.440249    11.772114    -2.017889    0.986404    -2.949693    0.119030    1.203235    6.167359    0.119755    -0.558656    -1.045037    6.705641    -2.261615    -6.055621    -5.260847    -1.017588    6.677141    -2.429053    3.312996    0.000000    0.000000    0.000000    -3.735087    7.315641    2.472269    6.331977    -4.185128    2.051958    -3.761082    -4.184881    -7.996999    0.000000    0.000000    0.000000    
0.165206    87.086105    11.330213    0.031928    0.097126    1.334764    -1.515191    -0.731933    -0.632521    1.538680    -2.732914    -0.586105    -0.958805    15.796914    -3.159796    -0.043609    -0.012242    -3.290741    15.110104    3.875744    -4.357837    -25.594824    5.476063    2.622663    2.263501    -5.740852    -5.972391    10.356043    -5.238740    4.261255    -13.817511    0.355376    0.434370    11.758797    -2.032922    0.989737    -2.948874    0.144672    1.199763    6.165083    0.144599    -0.572715    -1.040410    6.702964    -2.262245    -6.062226    -5.269547    -1.006909    6.678570    -2.419755    3.305220    0.000000    0.000000    0.000000    -3.731161    7.308861    2.466690    6.331263    -4.181575    2.052274    -3.751439    -4.185448    -7.996244    0.000000    0.000000    0.000000    
0.163627    87.086876    11.324692    0.032373    0.102150    1.342480    -1.521978    -0.725449    -0.636861    1.551482    -2.734574    -0.590163    -0.951906    15.785791    -3.157672    -0.051359    -0.008573    -3.289538    15.134909    3.816490    -4.406899    -25.642916    5.512102    2.718389    2.268975    -5.744747    -5.988422    10.375031    -5.243199    4.240696    -13.819682    0.357223    0.424635    11.738436    -2.047935    1.001016    -2.949043    0.165581    1.194889    6.173616    0.165517    -0.571845    -1.040800    6.691220    -2.262051    -6.064961    -5.264661    -1.000056    6.687215    -2.418064    3.302993    0.000000    0.000000    0.000000    -3.730032    7.298950    2.461517    6.329716    -4.175677    2.052316    -3.752996    -4.185195    -7.994453    0.000000    0.000000    0.000000    
0.161244    87.087357    11.321864    0.033788    0.103048    1.348250    -1.530847    -0.724326    -0.639160    1.565369    -2.725721    -0.592255    -0.959875    15.777222    -3.155045    -0.028639    -0.003969    -3.283452    15.135670    3.785672    -4.419538    -25.646212    5.554639    2.747233    2.267526    -5.752860    -5.983628    10.381418    -5.252713    4.224445    -13.830796    0.344927    0.426046    11.731689    -2.063475    0.990853    -2.959337    0.191386    1.196057    6.195479    0.191579    -0.569738    -1.040074    6.688279    -2.255559    -6.059044    -5.261978    -1.025439    6.676221    -2.420332    3.302374    0.000000    0.000000    0.000000    -3.729725    7.299556    2.461347    6.329825    -4.181786    2.057264    -3.751746    -4.178704    -8.005054    0.000000    0.000000    0.000000    
0.159695    87.087830    11.317020    0.034925    0.107602    1.357906    -1.537819    -0.718959    -0.643160    1.578150    -2.727125    -0.596032    -0.957350    15.768564    -3.153584    -0.027531    -0.002443    -3.281725    15.136542    3.763219    -4.431063    -25.649166    5.581044    2.772220    2.266836    -5.756037    -5.982790    10.378391    -5.256715    4.217266    -13.835640    0.345915    0.417101    11.731270    -2.143048    0.934617    -3.008049    0.225661    1.379752    6.257314    0.217438    -0.814244    -1.042195    6.677681    -2.247167    -6.051897    -5.256674    -1.042974    6.663127    -2.416039    3.301234    0.000000    0.000000    0.000000    -3.728799    7.291581    2.455721    6.331235    -4.176823    2.052507    -3.756049    -4.182830    -8.005793    0.000000    0.000000    0.000000    
0.157580    87.088142    11.313529    0.035675    0.108517    1.367268    -1.544556    -0.711903    -0.647264    1.591450    -2.727011    -0.599795    -0.961961    15.767557    -3.161401    -0.013049    -0.007585    -3.287771    15.131493    3.796686    -4.417173    -25.631317    5.572347    2.736754    2.263119    -5.764697    -5.963604    10.367628    -5.267598    4.203432    -13.849976    0.339178    0.411915    11.726799    -2.136375    0.926504    -3.017724    0.232163    1.387512    6.258236    0.224716    -0.803899    -1.039348    6.672863    -2.250620    -6.057141    -5.252925    -1.058400    6.665525    -2.413336    3.315404    0.000000    0.000000    0.000000    -3.726679    7.291094    2.447209    6.330390    -4.183319    2.034263    -3.756690    -4.175332    -7.986871    0.000000    0.000000    0.000000    
0.150637    87.090157    11.322813    0.049114    0.098230    1.303238    -1.584722    -0.728900    -0.613616    1.630795    -2.689979    -0.565247    -0.974525    15.764218    -3.168698    0.015998    -0.013430    -3.291132    15.122955    3.818941    -4.417087    -25.619198    5.561350    2.724267    2.265278    -5.777196    -5.959349    10.361257    -5.280230    4.204393    -13.864469    0.343135    0.396085    11.719809    -2.124587    0.934693    -3.024608    0.221979    1.383482    6.244528    0.215433    -0.788262    -1.052737    6.714721    -2.176605    -6.062510    -5.297372    -1.056137    6.656073    -2.377190    3.301923    0.000000    0.000000    0.000000    -3.740658    7.299408    2.518670    6.324210    -4.188676    2.030775    -3.750977    -4.175782    -7.994675    0.000000    0.000000    0.000000    
0.147651    87.090294    11.320034    0.052341    0.101707    1.308645    -1.595663    -0.730209    -0.612893    1.645054    -2.681103    -0.564270    -0.976288    15.762318    -3.181198    0.030983    -0.020099    -3.301957    15.119538    3.800174    -4.434752    -25.617508    5.574127    2.755156    2.269233    -5.788499    -5.970659    10.344337    -5.290759    4.215202    -13.877245    0.338430    0.375560    11.713620    -2.126230    0.942334    -3.026561    0.219976    1.379208    6.225174    0.213561    -0.788731    -1.053125    6.708105    -2.167540    -6.061124    -5.291272    -1.090893    6.655244    -2.377741    3.317917    0.000000    0.000000    0.000000    -3.741275    7.294990    2.522547    6.323762    -4.188616    2.030024    -3.765097    -4.176408    -7.999302    0.000000    0.000000    0.000000    
